<svg width="724" height="128" viewBox="0 0 724 128" fill="none" xmlns="http://www.w3.org/2000/svg">
<path d="M211.51 57.4555L191.323 55.0422C183.264 54.1125 179.344 51.5273 179.344 47.1376C179.344 41.4906 185.724 38.6242 198.313 38.6242C207.793 38.6242 217.461 40.8188 227.043 45.1617C227.317 45.2864 227.629 45.2944 227.91 45.1851C228.192 45.0757 228.41 44.849 228.527 44.5758L233.041 33.5159C233.15 33.2503 233.15 32.9379 233.041 32.6723C232.924 32.4068 232.705 32.1881 232.432 32.0787C221.147 27.5251 209.808 25.2054 198.719 25.2054C187.629 25.2054 179.078 27.1424 173.174 30.954C167.09 34.8984 164.006 40.6235 164.006 47.9813C164.006 54.0734 166.13 59.08 170.339 62.8685C174.463 66.6017 180.453 68.9371 188.129 69.8042L208.067 72.2176C216.594 73.2719 220.741 76.0371 220.741 80.6532C220.741 86.7533 214.634 89.7214 202.061 89.7214C190.878 89.7214 179.632 87.0502 168.637 81.7781C168.364 81.645 168.043 81.6296 167.762 81.7466C167.473 81.856 167.247 82.0747 167.138 82.3636L162.428 94.0405C162.21 94.5953 162.46 95.2199 162.998 95.462C174.791 100.805 187.77 103.523 201.577 103.523C224.466 103.523 236.071 95.6654 236.071 80.169C236.071 67.0939 227.816 59.4549 211.534 57.4632" fill="white"/>
<path d="M316.804 57.4464H278.882C278.273 57.4464 277.773 57.9463 277.773 58.5556V69.7015C277.773 70.3104 278.273 70.8027 278.882 70.8027H316.804C317.414 70.8027 317.914 70.3104 317.914 69.7015V58.5556C317.914 57.9463 317.422 57.4464 316.804 57.4464Z" fill="white"/>
<path d="M316.804 26.6429H252.549C251.94 26.6429 251.44 27.1427 251.44 27.752V101C251.44 101.61 251.94 102.102 252.549 102.102H316.804C317.414 102.102 317.913 101.61 317.913 101V89.5422C317.913 88.9329 317.422 88.4407 316.804 88.4407H266.832V40.3661H316.804C317.414 40.3661 317.913 39.8742 317.913 39.2572V27.7598C317.913 27.1506 317.422 26.6507 316.804 26.6507" fill="white"/>
<path d="M406.745 26.6429H393.984C393.377 26.6429 392.876 27.1427 392.876 27.752V77.8262L348.206 27.0178C347.996 26.7757 347.691 26.6429 347.379 26.6429H334.314C333.704 26.6429 333.205 27.1427 333.205 27.752V101C333.205 101.61 333.704 102.102 334.314 102.102H347.066C347.675 102.102 348.175 101.61 348.175 101V48.9187L394.437 101.727C394.65 101.969 394.953 102.102 395.275 102.102H406.745C407.356 102.102 407.853 101.61 407.853 101V27.752C407.853 27.1427 407.363 26.6429 406.745 26.6429Z" fill="white"/>
<path d="M495.22 26.6429H423.913C423.302 26.6429 422.801 27.1427 422.801 27.752V39.4288C422.801 40.038 423.295 40.538 423.913 40.538H451.886V101C451.886 101.61 452.376 102.102 452.986 102.102H466.146C466.753 102.102 467.247 101.61 467.247 101V40.538H495.22C495.83 40.538 496.328 40.038 496.328 39.4288V27.752C496.328 27.1427 495.838 26.6429 495.22 26.6429Z" fill="white"/>
<path d="M566.314 72.053C571.711 70.8264 576.055 68.4208 579.255 64.8905C582.787 60.9616 584.582 55.9865 584.582 50.1051C584.582 42.9268 581.964 37.1471 576.787 32.9215C571.671 28.7506 564.691 26.6339 556.039 26.6339H512.947C512.336 26.6339 511.839 27.126 511.839 27.743V100.991C511.839 101.601 512.336 102.093 512.947 102.093H526.129C526.739 102.093 527.229 101.601 527.229 100.991V40.2011H557.608C561.177 40.2011 564.044 41.1385 566.12 42.9974C568.205 44.8249 569.214 47.1995 569.214 50.2846C569.214 53.3698 568.19 55.7052 566.099 57.4625C563.948 59.2435 560.957 60.1494 557.209 60.1494H539.186C538.576 60.1494 538.078 60.6416 538.078 61.2586V72.7559C538.078 73.3652 538.576 73.8571 539.186 73.8571H548.931L569.627 101.655C569.839 101.936 570.165 102.1 570.516 102.1H586.879C587.292 102.1 587.683 101.866 587.87 101.491C588.056 101.116 588.009 100.663 587.76 100.327L566.314 72.053Z" fill="white"/>
<path d="M615.056 26.6429H601.896C601.286 26.6429 600.788 27.1427 600.788 27.752V101C600.788 101.61 601.278 102.102 601.896 102.102H615.056C615.663 102.102 616.164 101.61 616.164 101V27.752C616.164 27.1427 615.671 26.6429 615.056 26.6429Z" fill="white"/>
<path d="M720.409 100.507L684.699 27.267C684.513 26.8843 684.129 26.65 683.708 26.65H668.142C667.722 26.65 667.338 26.8921 667.151 27.267L631.438 100.507C631.266 100.851 631.292 101.258 631.493 101.578C631.697 101.898 632.048 102.101 632.429 102.101H646.338C646.77 102.101 647.157 101.851 647.34 101.468L675.664 41.6622L690.104 71.733H672.783C672.358 71.733 671.971 71.9832 671.781 72.3657L666.566 83.4256C666.402 83.7694 666.424 84.1677 666.629 84.488C666.83 84.808 667.181 85.0033 667.565 85.0033H695.998L704.057 101.476C704.247 101.859 704.628 102.093 705.052 102.093H719.426C719.81 102.093 720.161 101.898 720.358 101.57C720.559 101.249 720.581 100.844 720.409 100.5" fill="white"/>
<mask id="mask0_13_39" style="mask-type:luminance" maskUnits="userSpaceOnUse" x="0" y="0" width="112" height="72">
<path d="M0.00793457 63.8833C0.00793457 67.9216 3.28789 71.1863 7.31757 71.1863C11.3472 71.1863 14.635 67.8982 14.635 63.8523C14.635 36.71 36.7122 14.6293 63.8501 14.6293C77.0086 14.6293 89.3634 19.7531 98.6409 29.0478C101.492 31.9143 106.115 31.9143 108.981 29.0634C111.839 26.2047 111.847 21.573 108.996 18.7143C96.9541 6.63907 80.9292 0 63.8578 0C28.6529 0 0.0157457 28.6416 0.0157457 63.8757" fill="white"/>
</mask>
<g mask="url(#mask0_13_39)">
<path d="M111.855 0.00878906H0.00793457V71.1872H111.855V0.00878906Z" fill="url(#paint0_linear_13_39)"/>
</g>
<mask id="mask1_13_39" style="mask-type:luminance" maskUnits="userSpaceOnUse" x="0" y="28" width="92" height="44">
<path d="M29.0198 56.565L7.32523 56.5497H7.30962C3.27215 56.5497 0 59.8144 0 63.8603C0 67.8905 3.27215 71.1709 7.3018 71.1709L35.5719 71.2024C37.501 71.2024 39.3673 70.4135 40.7418 69.0465C42.1083 67.6718 42.8816 65.8052 42.8816 63.8603C42.8816 52.3085 52.2841 42.9122 63.8341 42.9122C69.4257 42.9122 74.6813 45.0915 78.6564 49.0591C81.5147 51.9179 86.1381 51.9179 88.9961 49.0591C91.8544 46.2003 91.8544 41.5689 88.9961 38.7101C82.2724 31.9851 73.3306 28.275 63.8341 28.275C46.7236 28.275 32.3935 40.4283 29.012 56.565" fill="white"/>
</mask>
<g mask="url(#mask1_13_39)">
<path d="M91.8701 28.2662H0V71.1937H91.8701V28.2662Z" fill="url(#paint1_linear_13_39)"/>
</g>
<mask id="mask2_13_39" style="mask-type:luminance" maskUnits="userSpaceOnUse" x="16" y="56" width="112" height="72">
<path d="M92.1122 56.565C88.0746 56.565 84.8023 59.8374 84.7946 63.868C84.7789 75.4121 75.3845 84.8084 63.8498 84.8084C58.2425 84.8084 52.9712 82.6291 49.0276 78.6849C46.1692 75.8261 41.5463 75.8261 38.6802 78.6849C35.8218 81.5433 35.8218 86.1831 38.6802 89.0339C45.3962 95.7509 54.338 99.4454 63.8498 99.4454C80.937 99.4454 95.267 87.3077 98.6644 71.202H112.518C108.957 94.8838 88.4808 113.099 63.8498 113.099C50.7144 113.099 38.3522 107.983 29.051 98.6723C26.2006 95.8212 21.5618 95.8212 18.7036 98.6723C15.8453 101.531 15.8453 106.162 18.7036 109.021C30.7691 121.089 46.7942 127.736 63.8422 127.736C99.0158 127.736 127.661 99.0863 127.684 63.8837C127.684 61.9388 126.919 60.0719 125.544 58.7052C124.17 57.3305 122.311 56.557 120.374 56.557H92.1122V56.565Z" fill="white"/>
</mask>
<g mask="url(#mask2_13_39)">
<path d="M127.699 56.5661H15.8528V127.737H127.699V56.5661Z" fill="url(#paint2_linear_13_39)"/>
</g>
<g style="mix-blend-mode:multiply">
<mask id="mask3_13_39" style="mask-type:luminance" maskUnits="userSpaceOnUse" x="75" y="34" width="18" height="19">
<g style="mix-blend-mode:multiply">
<path d="M92.6743 34.6946H75.0017V52.7137H92.6743V34.6946Z" fill="white"/>
</g>
</mask>
<g mask="url(#mask3_13_39)">
<path d="M83.8429 51.2C81.9141 51.2 80.024 50.4188 78.6729 49.0522C78.3295 48.7084 78.0169 48.3335 77.7595 47.9429C77.5017 47.5447 77.2754 47.115 77.0955 46.6776C76.9002 46.2402 76.7755 45.7871 76.6738 45.3105C76.5802 44.842 76.5254 44.3498 76.5254 43.8813C76.5254 43.4128 76.5722 42.9283 76.6738 42.4521C76.7755 41.9756 76.9002 41.5225 77.0955 41.0851C77.2754 40.6477 77.5017 40.218 77.7595 39.8197C78.0249 39.4291 78.3295 39.0543 78.6729 38.7109C80.36 37.0081 82.8981 36.2269 85.2719 36.7111C85.7407 36.8047 86.1937 36.9375 86.6387 37.1174C87.076 37.3127 87.5134 37.5391 87.9039 37.7969C88.3098 38.0544 88.6692 38.3671 89.0126 38.7028C89.3563 39.0466 89.6609 39.4214 89.9187 39.812C90.1841 40.2103 90.4028 40.64 90.5823 41.0774C90.7776 41.5148 90.9103 41.9679 91.012 42.4441C91.1136 42.9129 91.1604 43.4048 91.1604 43.8736C91.1604 44.3421 91.1136 44.8344 91.012 45.3028C90.9184 45.7794 90.7776 46.2325 90.5823 46.6699C90.4105 47.1073 90.1841 47.5366 89.9187 47.9349C89.6532 48.3255 89.3486 48.7003 89.0126 49.0441C88.6692 49.3879 88.3098 49.6925 87.9039 49.9503C87.5134 50.2159 87.076 50.4346 86.6387 50.6218C86.2014 50.8171 85.7407 50.9422 85.2719 51.0438C84.8035 51.1375 84.327 51.1919 83.8429 51.1919" fill="#F2AD1C"/>
</g>
</g>
<g style="mix-blend-mode:multiply">
<mask id="mask4_13_39" style="mask-type:luminance" maskUnits="userSpaceOnUse" x="35" y="74" width="18" height="19">
<g style="mix-blend-mode:multiply">
<path d="M52.6896 74.9659H35.0168V92.6961H52.6896V74.9659Z" fill="white"/>
</g>
</mask>
<g mask="url(#mask4_13_39)">
<path d="M43.8418 91.1737C43.3731 91.1737 42.897 91.1268 42.4282 91.0252C41.9598 90.9316 41.4991 90.7831 41.046 90.6035C40.6087 90.4239 40.1871 90.1972 39.7966 89.9317C39.3903 89.6585 39.0079 89.3615 38.6718 89.0258C38.3519 88.682 38.0473 88.3149 37.7661 87.9166C37.5006 87.5183 37.282 87.0886 37.1024 86.6512C36.9225 86.2138 36.7744 85.7454 36.6728 85.2846C36.5945 84.8157 36.5478 84.3238 36.5478 83.855C36.5478 83.3865 36.5945 82.8942 36.6728 82.4258C36.7744 81.9492 36.9148 81.4961 37.1024 81.0587C37.2739 80.606 37.5006 80.1839 37.7661 79.7937C38.0473 79.3874 38.3519 79.0126 38.6718 78.6688C39.0155 78.3407 39.3903 78.0284 39.7966 77.7706C40.1871 77.4894 40.6087 77.263 41.046 77.0911C41.4991 76.9115 41.9598 76.763 42.4282 76.6614C43.3731 76.4818 44.3494 76.4818 45.2708 76.6614C45.7396 76.7554 46.208 76.9035 46.6453 77.0911C47.0903 77.2707 47.5123 77.4974 47.9028 77.7706C48.3087 78.0284 48.6835 78.3407 49.0272 78.6688C49.3475 79.0126 49.6598 79.3797 49.9333 79.7937C50.1988 80.1839 50.4174 80.606 50.6047 81.0587C50.7765 81.4961 50.925 81.9492 51.0266 82.4258C51.1279 82.8942 51.1747 83.3708 51.1747 83.855C51.1747 84.3396 51.1279 84.808 51.0266 85.2846C50.9326 85.7373 50.7842 86.2138 50.6047 86.6512C50.4251 87.0886 50.1988 87.5183 49.9333 87.9166C49.6598 88.3149 49.3475 88.682 49.0272 89.0258C48.6835 89.3696 48.3167 89.6742 47.9028 89.9317C47.5123 90.1972 47.0903 90.4159 46.6453 90.6035C46.208 90.7988 45.7396 90.9239 45.2708 91.0252C44.7944 91.1192 44.326 91.1737 43.8418 91.1737Z" fill="#F2AD1C"/>
</g>
</g>
<g style="mix-blend-mode:multiply">
<mask id="mask5_13_39" style="mask-type:luminance" maskUnits="userSpaceOnUse" x="15" y="94" width="18" height="19">
<g style="mix-blend-mode:multiply">
<path d="M32.7132 94.6732H15.0405V112.692H32.7132V94.6732Z" fill="white"/>
</g>
</mask>
<g mask="url(#mask5_13_39)">
<path d="M23.8811 111.171C23.4125 111.171 22.9206 111.124 22.452 111.022C21.999 110.928 21.5226 110.796 21.0853 110.616C20.648 110.421 20.2263 110.194 19.8202 109.937C19.4297 109.679 19.0549 109.367 18.7191 109.031C17.3524 107.664 16.5715 105.774 16.5715 103.86C16.5715 101.947 17.3524 100.056 18.7191 98.6895C19.0627 98.3457 19.4297 98.0411 19.8202 97.7832C20.2263 97.502 20.648 97.299 21.0853 97.1037C21.5226 96.9242 21.999 96.7757 22.452 96.6974C24.826 96.2132 27.3641 96.9867 29.0509 98.6971C30.4176 100.064 31.1985 101.954 31.1985 103.868C31.1985 105.781 30.4176 107.679 29.0509 109.038C27.7077 110.405 25.8178 111.186 23.8811 111.186" fill="#F2AD1C"/>
</g>
</g>
<g style="mix-blend-mode:multiply">
<mask id="mask6_13_39" style="mask-type:luminance" maskUnits="userSpaceOnUse" x="94" y="14" width="19" height="19">
<g style="mix-blend-mode:multiply">
<path d="M112.651 14.7232H94.9789V32.7424H112.651V14.7232Z" fill="white"/>
</g>
</mask>
<g mask="url(#mask6_13_39)">
<path d="M103.818 31.2195C101.889 31.2195 99.9997 30.4384 98.6486 29.0716C98.3049 28.7279 98.0003 28.353 97.7348 27.9625C97.4617 27.5642 97.235 27.1345 97.0555 26.6972C96.8759 26.2598 96.7351 25.7911 96.6496 25.3303C96.5556 24.8617 96.5088 24.3696 96.5088 23.9009C96.5088 21.9717 97.2898 20.0894 98.6563 18.7303C100.343 17.0276 102.866 16.2465 105.255 16.7308C105.708 16.8089 106.185 16.9573 106.622 17.1369C107.059 17.3322 107.481 17.5587 107.872 17.8164C108.277 18.0742 108.66 18.3866 108.996 18.7225C110.363 20.0894 111.144 21.9561 111.144 23.8931C111.144 25.8302 110.363 27.7047 108.996 29.0638C108.653 29.4075 108.277 29.7121 107.872 29.9698C107.481 30.2354 107.059 30.4541 106.622 30.6416C106.185 30.8368 105.716 30.9618 105.255 31.0633C104.779 31.157 104.295 31.2117 103.826 31.2117" fill="#F2AD1C"/>
</g>
</g>
<defs>
<linearGradient id="paint0_linear_13_39" x1="2.17614" y1="33.9605" x2="114.137" y2="33.9605" gradientUnits="userSpaceOnUse">
<stop stop-color="#E77238"/>
<stop offset="1" stop-color="#F2AE38"/>
</linearGradient>
<linearGradient id="paint1_linear_13_39" x1="-1.42475" y1="50.7598" x2="90.4027" y2="50.7598" gradientUnits="userSpaceOnUse">
<stop stop-color="#E77238"/>
<stop offset="1" stop-color="#F2AE38"/>
</linearGradient>
<linearGradient id="paint2_linear_13_39" x1="125.076" y1="94.0354" x2="13.1155" y2="94.0354" gradientUnits="userSpaceOnUse">
<stop stop-color="#E77238"/>
<stop offset="1" stop-color="#F2AE38"/>
</linearGradient>
</defs>
</svg>
